# xmcd
#
# Track frame offsets: 
#        150
#        18661
#        33645
#        48067
#        66956
#        80728
#        94219
#        110794
#        126558
#        143407
#        160699
#        177182
#        191549
#        207066
#        222910
#
# Disc length: 3113 seconds
#
# Revision: 0
# Processed by: cddbd v1.5.1PL0 Copyright (c) Steve Scherf et al.
# Submitted via: ExactAudioCopy v0.95a5
#
DISCID=d70c270f
DTITLE=Diamond Rio - Greatest Hits
DYEAR=1997
DGENRE=Country
TTITLE0=How Your Love Makes Me Feel
TTITLE1=Meet In The Middle
TTITLE2=Mirror Mirror
TTITLE3=Mama Don't Forget To Pray For Me
TTITLE4=Norma Jean Riley
TTITLE5=In A Week Or Two
TTITLE6=Love A Little Stronger
TTITLE7=Night Is Fallin' In My Heart
TTITLE8=Bubba Hyde
TTITLE9=Walkin' Away
TTITLE10=It's All In Your Head
TTITLE11=Wouldn't
TTITLE12=She Misses Him On Sunday The Most
TTITLE13=Imagine That
TTITLE14=Unbelievable
EXTD=
EXTT0=
EXTT1=
EXTT2=
EXTT3=
EXTT4=
EXTT5=
EXTT6=
EXTT7=
EXTT8=
EXTT9=
EXTT10=
EXTT11=
EXTT12=
EXTT13=
EXTT14=
PLAYORDER=
